<?xml version="1.0" encoding="UTF-8"?>
<svg id="Layer_1" data-name="Layer 1" xmlns="http://www.w3.org/2000/svg" viewBox="0 0 512 512">
  <defs>
    <style>
      .cls-1 {
        fill: #3bc987;
      }

      .cls-2 {
        fill: #e58710;
      }

      .cls-3 {
        fill: #0d8062;
      }

      .cls-4 {
        fill: #aef6c0;
      }

      .cls-5 {
        fill: #18a679;
      }

      .cls-6 {
        fill: #f5a62d;
      }

      .cls-7 {
        fill: #f9d163;
      }

      .cls-8 {
        fill: #055b49;
      }

      .cls-9 {
        fill: #02604c;
      }
    </style>
  </defs>
  <path class="cls-8" d="M380.52,383.74c-2.05,1.47-2.75,3.88-4.32,5.6-44.43,48.41-117.81,71.47-179.21,39.68-4.01-2.08-7.49-4.92-11.64-6.74-16.58,10.33-33.81,19.83-52.6,25.66-57.83,17.94-117.71,1.1-111.31-69.91,4.33-48.04,37.15-100.2,65.38-137.31,1.26-1.66,4.61-4.44,5.21-5.7,1.47-3.09,1.87-12.38,2.79-16.63,8.62-39.84,35.26-76.62,68-99.46.86-.6,2.37-.74,2.58-.9-39.34,26.32-62.99,65.13-71.64,111.74-.21,1.14.51,2.25,0,3.76-1.63,4.8-8.78,9.87-10.73,15.45-2.18,1.57-4.23,4.03-5.91,6.23-1.79,2.34-1.63,4.33,1.2,1.83s3.58-4.8,4.71-8.06c2.39-1.72,5.2-4.14,7.16-6.31,6.79-7.54,5.9-21.07,15.37-27.64.65-.45,1.95-.24,2.35-.93.68-1.15,1.64-6.15,2.32-7.98.56-1.51,1.42-3.71,2.53-4.86-1.49,3.93-2.65,8.97-3.67,13.11,1.82-2.64,3.84-4.9,6.03-7.24,2.79,3.14,6.2-4.61,7.66-6.16,3.65-3.89,8.66-8,12.66-11.75,35.21-32.96,73.99-63.47,116.05-87.27,1.21-.43,1.32-3.11,1.65-3.36,1.39-1.06,5.28.27,6.86-.1,1.36-.31,1.97-2.14,3.56-2.65,2.32-.74,6.41-.59,8.72-1.53.66-.27.74-1.62,1.4-2.3,1.92-1.97,6.86-2.69,9.44-3.86,1.66-.75,2.78-2.24,4.45-2.98,2.79-1.25,5.64-.81,7.93-1.76,1.27-.53,2.38-2.44,3.92-3.43,3.39-2.18,11.03-3.74,15.33-5.62,1.25-.55,3.86-3.26.9-2.6-5.01,1.1-14.13,5.26-19.2,7.42-6.58,2.8-21.88,11.83-27.31,12.94-5.13,1.05-17.71-1.13-24.32-.81-26.23,1.26-57.62,12.13-79.41,26.71,22.8-17.61,57.32-28.09,86.56-27.93,3.71.02,14.19,1.78,16.47,1.36,3.25-.6,17.58-8.94,22.17-10.99,48.88-21.79,125.06-41.23,173.14-9,48.09,32.24,30.02,92.84,6.36,134.62-3.58,6.33-26.03,41.83-30.62,43.34-.09.03-.07-1.3-1.17.42.41.62.93-.72,1.17-.42.78,1.02-9.78,12.88-11.46,14.29-.45,43.7-17.44,85.85-45.85,118.04,25.69-34.54,45.09-71.46,44.41-116.59.12-.57,6.23-8.14,7.08-9.16.73-.87,6.29-4.95,2.04-4.44-4.53.55-1.55,4.61-5.03,4.69-1.81.04-2.53-1.5-3.61-2.29-.5-.36-1.55-.13-1.72-.27-.57-.49.27-2.54.18-3.37-.22-2.15-1.5-4.59.03-6.93.17.91.69,2.09.93,3.56.15.9-.11,2.4.57,2.99,21.88-27.04,43.93-58.83,52.06-93.21,6.49-27.46,3.49-57.78-23.07-73.03-2.47-2.61-6.55-4.42-9.86-5.9-15.61-6.95-36.56-10.21-53.59-9.62-87.12,2.99-190.31,72.41-251.07,131.7-43.31,42.27-92.82,106.57-104.65,167.02-3.93,20.07-4.98,46.21,12.47,60.29,5.83,8.97,26.28,14.12,36.49,14.75,31.52,1.97,63.46-9.48,90.29-25.07.36-1.82-1.05-.89-1.31-1.09-1.49-1.14-3.29-4.1-5.46-3.77-20.44,9.61-43.26,16.21-66.07,14.34-53.34-4.38-48.04-55.28-33.26-92.88,5.6-14.25,14.41-29.71,22.64-42.74,51.4-81.48,157.32-168.24,252.11-191.88,35.2-8.78,77.15-12.11,105.45,14.57,23.05,30.45,14.07,61.11-1.92,92.62-.25.5-.35.99-.49,1.26-.33.63-.7,1.28-1.04,1.92-4.03,7.48-9.57,15.78-14.36,22.88-1.12,1.66-6.83,8.42-7.03,9.47-5.97,1.2-3.38-.51-4.51-1.94-.31-.39-1.97-.15-2.31-.59-.52-.65-1.1-5.27-1.3-6.47l-4.14,1.01c8.95,33.61,2.11,70.81-13.01,101.53-.51,1.03.36,1.74-1.44.72,13.66-27.23,20.61-58.2,16.29-88.78-1.22-8.6-4.22-16.28-5.92-24.68-1.86-.13-.91.56-1.08,1.58-.32,1.92-.25,4.86-.62,6.48-.62,2.74-3.61,9.86-4.94,12.61l3.81-12.71c.73-1.55.41-10.39.76-10.8.08-.09,2.3-.3,2.39-.23.18.14-.07,5.34,1.53,3.51.23-.26.75-3.66,1.39-4.71s1.94-1.43,2.29-2.13c.56-1.11.71-5.85,1.31-6.3.56-.42,2.09,0,2.91-.64.63-.5.65-1.94.39-2.18-.16-.14-2.76,1.49-4.08.21-1.24-1.21-2.72-7.4-3.63-9.35-5.93-12.73-15.91-28.64-25.25-39.1-1.35-1.51-4.73-2.89-4.76-5.5,6.26,6.53,12.85,13.47,17.89,21.04,6.71,10.07,12.22,21.06,16.45,32.41.82.91.98.27,1.4-.52,4.18-7.9,6.15-23.27,3.81-31.82-4.4-16.1-21.73-22.53-36.97-22.55-.99,0-2.73-.12-3.25.9-1.07-1.46-.79-3.44-.93-3.57-.86-.78-10.93,2.39-12.86,2.45-1.33.04-2.08-.86-3.15-.96-1.59-.14-7.74.99-8.84,1.93-.52.45-.3,1.58-.75,2.29-.42.65-1.63.81-1.74,1.46-.35,2.17,1.1,4.48,1.26,6.46.27,3.39.19,8.89-.07,12.28-.09,1.15.72,2.3-1.11,2.11.48-7.21.78-14.75-1.42-21.72-.69-.39-13.41,3.46-15.39,4.08-4.82,1.51-24.45,8.03-26.98,10.97-1.53,1.78-3.12,5.99-4.73,8.32-8.17,11.77-20.41,19.18-33.83,23.66-10.33,3.45-26.18,5.54-35.23,9.66-5.64,2.57-22.05,17.26-27.64,22.12-17.89,15.56-34.32,33.65-49.22,52.09-4.08,5.05-12.01,14.77-14.17,20.53-4.38,11.68-7.43,39.15-4.86,51.17.74,3.46,13.03,18.62,16.13,22.13,4.19,4.74,8.84,9.33,13.85,13.15-.39-11.74-3.99-25-.87-36.41l-.16,18.54c-.38,5.29,2.11,12,2.18,16.84.03,1.55-.97,3.41-.84,4.4.17,1.34,1.58.94,1.98,1.76.61,1.28,1.57,6.18.52,7.25-.72.74-6.46,2.75-5.45,5.2,1.07,1.5,7.29-.33,7.92.2.14.11.13,2.36.76,3.44.5.85,5.62,3.98,4.89,5.16-4.67.3-3.83,3.31-5.84,5.45-1.31,1.39-2.62,1.22-3.54,2.06-.61.55-.69,1.87-1.27,2.28-1,.72-6.3,1.79-8.1,2.73-2.06,1.06-5.24,3.54-6.35,5.58l30.99-16.76c2.84-.18,2.64,2.49,4.1,3.27,40.11,21.37,79.84,24.85,122.83,7.67,28.96-11.57,46.05-27.66,67.69-48.13ZM89.38,399.25c11.66,18.61,36.01,17.17,54.78,12.48,6.37-1.59,12.42-4.28,18.81-5.8-.62-1.34-2.33-1.91-3.29-2.74-1.29-1.1-5.25-5.48-6.3-5.55-14.63,4.11-32.96,5.59-41.81-9.32-9.55-16.09-2.46-39.45,4.62-55.39,5.72-12.86,14.75-27.1,22.94-38.59,40.79-57.23,106.96-110.63,172.25-137.45,31.09-12.77,71.54-24.36,103.13-7.99,19.42,14.72,21.73,35.79,13.16,57.8-1.13,2.91-6.25,11.55-6.44,13.35-.18,1.64,1.62,3.35,2,4.69.35,1.2.09,2.93.39,4.22,17.39-23.3,35.28-63.45,13.41-89.35-2.62-3.1-5.28-5.22-8.81-7.16-.74-1.27-2.1-1.74-3.31-2.38-53.54-28.45-141.51,17.07-187.24,47.36-50.27,33.3-100.64,81.63-131.35,133.74-13.29,22.55-32.46,63.29-16.95,88.06ZM79.39,405.94c.33.3.42,1.52.93.51-15.77-31.44-.91-67.54,14.88-95.75,1.57-2.8,6.08-8.56,6.72-11.16.43-1.72-.45-2.6-.69-4.15-1.17-.18-1.12.53-1.61,1.16-16.51,21.76-36.4,71.33-27.27,98.04,1.31,3.84,3.99,8.62,7.03,11.35ZM119.72,351.49c-2.26,11.42-6.51,23.34,1.92,33.48,5.86,7.05,17.18,6.72,25.32,5.4l-15.31-20.09c-2.23-4.08-5.16-7.71-7.56-11.67-1.37-2.27-2.09-5.56-4.38-7.12ZM130.96,327.97c-.07,2.37-4.55,6.41-4.65,8.13-.03.49,4.63,6.96,5.22,8.23-.3-4.55.31-9.18.26-13.71,0-.66.22-2.85-.83-2.65ZM106.61,287.6c1.16.16,1.37-.77,2-1.39,7.33-7.25,12.32-14.68,18.64-22.38,21.48-26.19,46.87-51.11,73.35-72.12,33.92-26.91,71.24-48.92,111.73-64.67l18.7-6.7c-3.16-1.72-6.46-3.03-10.17-2.38-17.05,2.99-36.79,13.82-51.76,22.12-42.78,23.74-79.99,51.19-114.25,85.99-14.49,14.72-30.02,31.28-41.52,48.47-.96,1.44-7.59,12.31-6.73,13.06ZM251.44,201.45c15.2-5.93,31.43-11.08,42.23-23.9-7.78,2.14-14.69,6.55-22.02,9.8l-20.2,14.1ZM294.57,177.47l-.05-.6c-.37.24-.36.44.05.6ZM334.03,113.07c4.88,6.36,10.61,2.24,16.89.97,36.74-7.43,85.43-7.26,102.11,33.19l2.19,7.74c1.49-18.85-10.08-36.51-26.83-44.39-24.28-11.42-55.61-8.26-80.85-1.58-4.54,1.2-9.04,2.64-13.5,4.08Z"/>
  <path class="cls-9" d="M380.52,383.74c-21.64,20.47-38.73,36.56-67.69,48.13-42.99,17.18-82.72,13.7-122.83-7.67-1.46-.78-1.26-3.44-4.1-3.27l-30.99,16.76c1.11-2.04,4.29-4.51,6.35-5.58,1.81-.93,7.11-2.01,8.1-2.73.58-.42.67-1.73,1.27-2.28.92-.84,2.23-.68,3.54-2.06,2.01-2.13,1.18-5.15,5.84-5.45.73-1.19-4.39-4.31-4.89-5.16-.63-1.08-.62-3.33-.76-3.44-.63-.53-6.85,1.3-7.92-.2-1.01-2.45,4.73-4.46,5.45-5.2,1.05-1.07.09-5.97-.52-7.25-.39-.82-1.81-.42-1.98-1.76-.13-.99.87-2.85.84-4.4-.08-4.84-2.56-11.55-2.18-16.84l.16-18.54c.05-.18-.1-.41-.05-.6.59-.22.48-.75.49-1.26.02-.59-.2-1.24-.16-1.81,0-.1.35-.94.44-1.86.1-1.06.2-2.02.33-3.07.14-1.15-.12-1.13-.11-1.21.06-.42.44-.89.49-1.26.11-.7-.06-.57-.05-.6.23-1.35.63-2.49.88-3.73.13-.64-.06-.57-.05-.6.23-1.05.67-2.08.93-3.13.16-.64-.06-.57-.05-.6,13.03-49.19,49.63-83.31,96.38-101.16,30.99-11.83,68.52-14.64,82.67-50.13.66,1.44.89-.67,1.01-1.1.83-2.78,1.15-3.81,1.34-6.41.03-.39-.14-.82-.11-1.21,1.82.19,1.02-.97,1.11-2.11.26-3.39.34-8.9.07-12.28-.16-1.98-1.61-4.29-1.26-6.46.11-.65,1.32-.81,1.74-1.46.45-.7.23-1.84.75-2.29,1.09-.94,7.25-2.07,8.84-1.93,1.07.1,1.82.99,3.15.96,1.93-.06,12-3.23,12.86-2.45.14.13-.14,2.11.93,3.57.17.23.47.35.66.55.03,2.61,3.42,4,4.76,5.5,9.34,10.46,19.32,26.37,25.25,39.1.91,1.95,2.38,8.14,3.63,9.35,1.32,1.28,3.92-.35,4.08-.21.26.24.24,1.68-.39,2.18-.81.64-2.35.22-2.91.64-.6.45-.75,5.18-1.31,6.3-.35.7-1.69,1.13-2.29,2.13s-1.16,4.44-1.39,4.71c-1.59,1.82-1.35-3.37-1.53-3.51-.09-.07-2.31.14-2.39.23-.35.41-.03,9.26-.76,10.8l-3.81,12.71c-4.12,8.58-15.28,21.61-23.09,27.03.04-1.85-.59-1.25-1.7-.58-17.27,10.5-28.04,14.62-47.6,20.26-20.36,5.87-29.36,6.66-47.55,18.92-1.37.92-2.68,1.8-4,2.8-2.66,2.01-4.28,3.15-6.8,5.48-11.46,10.57-18.15,19.59-26.21,32.79-4.9,8.01-9.67,20.33-11.42,30.36-.16.9-.77,2.39.45,2.88-.44,1.67-.94,3.34-1.37,4.99-1.16,4.43-2.54,9.08-3.2,13.78l-5.74,15.01c-.99,1.68-4.89,6.44-5.15,7.16-.17.45.14.89.43,1.18.88.85,8.33,3.12,10.09,3.62,37.88,10.71,75.97-.89,108.01-21.47,1.03-.66,1.7.08,1.13-2.11,3.25-2.15,5.27-3.1,8.61-5.65.3,1.1,1.68-.48,2.06-.79,6.78-5.4,12.5-10.35,18.23-16.87,12.86-14.62,22.48-28.82,31.09-46.01,1.81,1.02.93.31,1.44-.72,15.12-30.71,21.96-67.91,13.01-101.53l4.14-1.01c.2,1.21.77,5.83,1.3,6.47.35.43,2,.19,2.31.59,1.13,1.43-1.46,3.14,4.51,1.94-.07.36.08,1.36.16,1.81-1.53,2.35-.25,4.78-.03,6.93.08.82-.76,2.87-.18,3.37.17.15,1.22-.09,1.72.27,1.09.79,1.8,2.33,3.61,2.29,3.48-.08.5-4.14,5.03-4.69,4.25-.51-1.31,3.57-2.04,4.44-.85,1.02-6.96,8.59-7.08,9.16.68,45.13-18.72,82.04-44.41,116.59-.65.88-.77,1.14-1.65,1.97ZM206.74,419c.19-.24.83-.44,1.15-.71,1.04-.88,1.09-.68,2.25-2.03,1.51-1.76,2.76-3.54,4.39-5.26.44-.47,1.85-1.04.49-1.26,8.34-13.6,8.02-30.19,12.3-45.22,8.7-30.52,33.94-57.55,62.08-71.48,25.16-12.45,54.57-13.54,78.64-28.69,18.87-11.87,28.08-25.77,31.35-47.75.64-4.33.04-6.82-.99-10.86-.03-.14-.53-.89-.77-1.75,1.02-.7.39-2.24.16-3.19-1.6-6.6-5.59-13.15-8.46-19.3l-3.93-4.99c-4.28-6.43-9.39-11.77-14.37-17.55l.57-.35c-.46-.69-1.41-.92-1.94-1.35-.46-.38-.86-.7-1.32-1.1-.13-1.21-2.28-3.14-3.35-3.35-.17-.03-.39.06-.6.05.08-2.92-5.42.45-5.44.87l2.26,10.7c-.04,8.5-.52,17.15-4.12,24.99l-.59,3.69c-10.22,22.58-30.28,34.01-52.76,41.89-1.53-1.11-4.35.33-6.01.84-19.86,6.2-39.73,13.03-57.44,24.05l-4.49,3.78c-27.5,18.93-45.98,45.58-55.61,77.43-2.95,9.76-4.42,19.85-3.95,30.16,0,.2.04.4.05.6-.94.72-.39,2.34-.31,3.36.59,7.36,2.19,25,6.45,30.74.08.1,1.51,1.23,1.97,1.65,1.19,1.06,1.01.86,2.56,1.94,3.67,2.55,7.82,5.17,12.19,6.45.68.34,1.36.78,1.92,1.04.85,1.54,2.76,1.39,4.03,2.06.56.29.48,1.13.53,1.16,1.53.81,1.01-1.21,1.09-1.3Z"/>
  <path class="cls-9" d="M330.02,289.8l.66.55c-.19.05-.41,0-.6.05l-.05-.6Z"/>
  <path class="cls-8" d="M468.09,415.2c-6.86,2.19-9.01-9.98-11.93-14.84-4.21-7-10.81-12.86-18.25-16.24-2.98-1.36-12.26-3.44-13.19-5.57-3.02-6.88,8.66-9.22,13.35-12.92,12.02-9.48,11.14-18.98,16.44-30.9,1.57-3.53,4.77-4.43,7.76-1.91,5.58,12.06,12,24.87,25.04,30.16,3.41,1.38,13.74,2.21,14.11,6.43.43,4.87-10.29,7.92-14.01,10.58-6.51,4.66-11.32,11.64-13.76,19.2-1.26,3.89-1.72,10.88-3.35,13.93-.57,1.06-1,1.68-2.22,2.07ZM466.51,392.96c3.54-8.58,8.64-14.55,15.79-20.29.32-.26,1.43-.16,1.72-1.07-10.96-4.31-16.09-10.96-22.5-20.15-.15-.21-.5-.35-.66-.55-.21-.26.27-1.1-.42-1.18-1.53-.18-.58.83-.79,1.29-4.19,9.17-8.24,16.71-16.12,23.36-.56.03-3.4.99-2.25,2.02,10.32,2.92,19.93,12.14,23.31,22.22l1.91-5.64Z"/>
  <path class="cls-9" d="M95.97,137.13c-7.69,10.04-14.35,27.24-26.86,32.53-17.28,7.32-24-7.65-21.69-22.54,3.17-20.39,19.67-37.96,39.29-43.64,7.48-2.17,24.13-3.92,30.98.23,1.69,1.03,4.01,4.35,4.41,6.4,2.59,13.01-13.14,14.41-20.82,20.56-2.85,2.28-2.98,3.54-4.76,5.79-.18.23-.38.44-.55.66ZM96.08,124.95l17.59-9.47c.59-.33.2-.96.29-1.27.05-.18.44-.37.46-.94.01-.61-.5-1.02-.68-1.47-.04-.1,1.15-.63-.95-1.19-8.99-2.4-22.58-.13-30.91,3.91-6.13,2.97-9.8,6.43-14.32,11.21-.19.2-.35.45-.55.66-1.66.41-3.18,2.23-3.29,3.95-.18.23-.37.43-.55.66-3.06,3.92-6.16,8.94-7.35,14.23-.2.91-.89,2.29.38,2.83-1.71,13.35,4.39,18.94,15.45,9.81,10.12-8.36,12.8-23.2,24.42-32.89Z"/>
  <path class="cls-8" d="M95.97,137.13l-10.8,18.58c-5.68,6-10.99,14.67-19.76,16.43-9.26,1.86-17.29-3.26-19.08-12.57-4.65-24.16,17.86-50.91,40.38-57.22,10.25-2.87,38.06-5.66,36.9,11.24-.81,11.78-21.62,13.69-27.08,22.87,1.78-2.26,1.91-3.51,4.76-5.79,7.68-6.15,23.41-7.55,20.82-20.56-.41-2.05-2.72-5.37-4.41-6.4-6.84-4.15-23.5-2.4-30.98-.23-19.62,5.68-36.12,23.24-39.29,43.64-2.31,14.88,4.41,29.85,21.69,22.54,12.51-5.3,19.18-22.49,26.86-32.53Z"/>
  <path class="cls-9" d="M83.03,249c-1.14,3.26-1.96,5.62-4.71,8.06s-2.99.51-1.2-1.83c1.68-2.2,3.73-4.65,5.91-6.23,1.95-5.58,9.09-10.64,10.73-15.45.51-1.51-.21-2.62,0-3.76,8.65-46.61,32.3-85.42,71.64-111.74,21.78-14.58,53.17-25.45,79.41-26.71,6.6-.32,19.18,1.86,24.32.81,5.43-1.11,20.73-10.13,27.31-12.94,5.08-2.16,14.19-6.32,19.2-7.42,2.96-.65.35,2.06-.9,2.6-4.29,1.88-11.94,3.44-15.33,5.62-1.53.99-2.64,2.9-3.92,3.43-2.29.95-5.13.51-7.93,1.76-1.67.74-2.79,2.23-4.45,2.98-2.58,1.17-7.51,1.89-9.44,3.86-.66.67-.74,2.03-1.4,2.3-2.3.94-6.39.78-8.72,1.53-1.6.51-2.2,2.34-3.56,2.65-1.58.36-5.47-.97-6.86.1-.33.25-.44,2.93-1.65,3.36-42.07,23.8-80.84,54.3-116.05,87.27-4.01,3.75-9.02,7.86-12.66,11.75-1.46,1.56-4.86,9.3-7.66,6.16.75-.8.85-1.81,2.19-2.63.22-.14.85.01,1.21-.12-.04-.34-.67-.49-.67-.54.35-3.26,21.53-29.81,25.18-33.93,23.78-26.79,52.91-48.99,85.05-64.88,1.42-.32,3.45-1.28,5.1-1.6,5.82-1.14,11.75-1.8,17.65-2.29-.71-2.55-1.85-5.4,1.97-5.04-.88-4.07-6.42.81-8.24,1.27-1.44.36-2.75-.51-3.98-.07-1.01.36-1.48,2.16-2.46,2.49s-2.4-.5-3.99-.05c-1.93.54-5.08,3.71-5.99,4.03-1.14.4-1.86-.83-2.86-.76-2.65.19-3.44,2.19-4.71,2.76-2.84,1.28-4.12.27-6.01.5-.34.04-.23,1.04-.7,1.24-6.8,2.86-14.35,4.48-21.49,7.64-.39.17-2.53.7-.97,1.14-33.9,15.54-65.45,50.26-78.64,85-1.1,1.16-1.96,3.36-2.53,4.86-.68,1.83-1.64,6.83-2.32,7.98-.4.68-1.7.48-2.35.93-9.47,6.57-8.58,20.1-15.37,27.64-1.95,2.17-4.76,4.59-7.16,6.31Z"/>
  <path class="cls-2" d="M392.6,68.2c-.16,1.91,1.04,1.03,2.2,1.01,16.42-.27,32.11,2.66,47.32,8.48-5.9-.59-11.48-2.74-17.34-3.62s-12.05-1.25-17.76-1.1c-15.7-2.67-41.65,2.47-57.39,6.53-107.53,27.72-235.26,132-286.26,230.33-11.3,21.78-24.75,56.58-24,81.2.35,11.3,3.75,26.62,9.98,36.19-17.45-14.08-16.4-40.23-12.47-60.29,11.83-60.45,61.34-124.75,104.65-167.02,60.75-59.29,163.94-128.71,251.07-131.7Z"/>
  <path class="cls-3" d="M112.75,201.29c13.19-34.74,44.75-69.46,78.64-85,11.54-5.29,24.33-8.45,36.69-11.24-32.14,15.9-61.26,38.09-85.05,64.88-3.65,4.12-24.83,30.67-25.18,33.93l-.55.66c-1.34.82-1.45,1.83-2.19,2.63-2.19,2.34-4.21,4.59-6.03,7.24,1.02-4.14,2.18-9.18,3.67-13.11Z"/>
  <path class="cls-7" d="M426.48,246.98c8.78-13.09,19.29-25.3,26.21-39.48.92-.92,1.26-1.24,1.59-2.58,1.09-.37.82-1.19,1.04-1.92.11-.35.35-.69.49-1.26.22-.19.37-.43.55-.66,10.47-13.57,20.87-50.77,20.58-67.87-.73-43.91-33.57-54.04-69.93-60.23,5.71-.15,12.11.26,17.76,1.1s11.44,3.03,17.34,3.62c4.48,1.71,9.81,3.67,13.93,6.03,26.56,15.25,29.56,45.57,23.07,73.03-8.13,34.38-30.17,66.17-52.06,93.21-.68-.59-.42-2.09-.57-2.99Z"/>
  <path class="cls-7" d="M49.35,427.22c-6.23-9.57-9.63-24.9-9.98-36.19,1.47,2.25.82,5.3,1.47,7.93,12.16,48.77,76.3,38.81,111.83,27.12,7.75-2.55,14.77-6.91,22.15-10.25.26.2,1.68-.73,1.31,1.09-26.84,15.59-58.77,27.04-90.29,25.07-10.21-.64-30.65-5.79-36.49-14.75Z"/>
  <path class="cls-2" d="M425.55,243.41c-.08-.45-.23-1.45-.16-1.81.2-1.06,5.91-7.81,7.03-9.47,4.79-7.1,10.33-15.39,14.36-22.88,1-.38,4.44.67,4.86.14.14-.17-.31-1.28-.04-1.69.24-.37,1.01-.11,1.11-.21-6.93,14.19-17.44,26.4-26.21,39.48-.24-1.48-.76-2.66-.93-3.56Z"/>
  <path class="cls-6" d="M456.04,83.73c-4.12-2.36-9.45-4.32-13.93-6.03-15.21-5.82-30.9-8.75-47.32-8.48-1.16.02-2.37.9-2.2-1.01,17.03-.59,37.98,2.67,53.59,9.62,3.31,1.48,7.39,3.29,9.86,5.9Z"/>
  <path class="cls-9" d="M439.48,249.45c-.23-.3-.76,1.04-1.17.42,1.1-1.72,1.07-.39,1.17-.42Z"/>
  <path class="cls-5" d="M201.09,417.08c-.56-.26-1.24-.71-1.92-1.04-5.09-2.51-9.77-5.75-14.75-8.39-.46-.41-1.9-1.54-1.97-1.65-3.02-11.34-5.51-22.32-6.14-34.11-.01-.2-.05-.4-.05-.6l3.95-30.16c9.63-31.85,28.1-58.5,55.61-77.43,21.69-14.93,43.66-20.16,67.95-28.68,22.48-7.88,42.54-19.31,52.76-41.89,5.81-12.83,7.06-26.05,3.67-39.87,1.36,0,2.91-.45,4.23-.38.21.01.43-.09.6-.05,1.04,1.16,2.17,2.32,3.35,3.35.45.4.85.72,1.32,1.1.46.56.9,1.15,1.37,1.7,4.98,5.78,10.09,11.11,14.37,17.55,6.03,9.06,9.32,17.01,12.23,27.47.24.86.73,1.62.77,1.75l.99,10.86c-3.27,21.98-12.48,35.88-31.35,47.75-24.07,15.14-53.48,16.24-78.64,28.69-28.15,13.92-53.38,40.96-62.08,71.48-4.28,15.03-3.96,31.62-12.3,45.22l-.49,1.26c-1.63,1.73-2.88,3.5-4.39,5.26l-2.25,2.03c-.32.27-.97.48-1.15.71-1.89-.31-3.92-1.11-5.65-1.92Z"/>
  <path class="cls-1" d="M243.59,429.64l-.95-.52-.25.63c-.4.04-.81.1-1.21.11-7.87.11-14.16-3.74-21.72-4.72-.3-.29-.6-.72-.43-1.18.26-.72,4.16-5.48,5.15-7.16,5.16-8.69,8.28-18.65,8.94-28.79.43-1.65.93-3.32,1.37-4.99,1.24-4.7,1.89-9.56,3.33-14.23,2.01-6.5,5.14-12.7,7.63-19.01,8.07-13.2,14.76-22.22,26.21-32.79l6.8-5.48c1.32-1,2.63-1.87,4-2.8,3.01-.81,5.36-3.13,8.11-4.67,13.41-7.51,25.15-9.55,39.49-13.64.19-.05.41,0,.6-.05,17.07-4.87,33.9-9.99,48.64-20.23,7.81-5.43,18.96-18.46,23.09-27.03,1.32-2.75,4.32-9.87,4.94-12.61,1.41,5.93,2.04,12.81,2.36,18.97.26,5.04.44,11.66.27,16.68-1.7-.2-1.09.93-1.22,2.02-.98,8.19-1.84,15.96-3.2,24.13-.15.87-.99,2.25.36,2.81-12.38,56.45-57.62,106.77-112.75,124.59-14.89,4.81-32.66,8.03-48.37,9.87-.4.05-.81.06-1.21.11ZM320.53,386.15c3.25,3.47,9.33,1.79,13.11.05,3.21-1.48,8.3-4.99,10.53-7.67,3.31-2.57,7.2-5.98,10.15-8.83.79-.76,1.16-1.48,1.65-1.97.7-.71,1.1-1.63,2.19-2.63.11-.1.84.12,1.1-.2s-.09-.99,0-1.12c.95-1.53,1.95-2.2,2.74-3.29.27-.37.69-.75,1.1-1.32,1.69-2.35,3.77-5.84,5.32-8.39,4.19-6.89,11.91-20.45,7.93-28.56-.48-.97-5-3.7-6.19-3.97-6.68-1.53-10.78,2.49-15.07,6.38-.2.18-.34.47-.55.66l-5.15,3.52.66.54c-2.43,2.39-5.53,5.51-7.79,8.01-.86.95-1.45,1.77-2.19,2.63-1.67,1.94-3.97,4.61-5.48,6.58-.17.23-.38.43-.55.66-3.44,4.54-8.24,11.35-11.3,16.23-2.08,3.32-5.63,9.83-5.9,13.76-.24,3.44-.19,5.57,2.39,7.85.22.2,1.24,1.06,1.32,1.1ZM387.49,293.1c-.05-.07-1.16-.98-1.32-1.1-3-2.12-3.76-1.79-6.83.72-3.37,2.76-6.8,8.81-3.87,12.82,5.99,8.2,17.57-5.29,12.01-12.44Z"/>
  <path class="cls-3" d="M168.24,356.81c-3.12,11.41.48,24.68.87,36.41-5.01-3.82-9.66-8.41-13.85-13.15-3.1-3.5-15.39-18.66-16.13-22.13-2.57-12.02.48-39.49,4.86-51.17,2.16-5.76,10.08-15.48,14.17-20.53,14.9-18.43,31.33-36.53,49.22-52.09,5.6-4.87,22.01-19.55,27.64-22.12,9.05-4.13,24.9-6.21,35.23-9.66,13.41-4.48,25.66-11.88,33.83-23.66,1.61-2.33,3.2-6.55,4.73-8.32,2.53-2.94,22.16-9.46,26.98-10.97,1.98-.62,14.7-4.48,15.39-4.08,2.2,6.97,1.9,14.51,1.42,21.72-.03.39.14.82.11,1.21-.9,2.47-1.38,5.06-2.36,7.51-14.15,35.5-51.69,38.3-82.67,50.13-46.75,17.85-83.35,51.97-96.38,101.16l.05.6c-.26,1.04-.7,2.08-.93,3.13l.05.6c-.25,1.24-.65,2.38-.88,3.73l.05.6c-.06.37-.43.84-.49,1.26l.11,1.21c-.13,1.05-.23,2.01-.33,3.07l-.44,1.86c-.04.57.18,1.22.16,1.81-.65.25-.4.81-.49,1.26-.04.19.1.43.05.6Z"/>
  <path class="cls-4" d="M241.18,429.86c.4,0,.81-.07,1.21-.11s.81-.06,1.21-.11.81-.06,1.21-.11c.72.94,2.34.4,3.36.31,15.41-1.24,30.51-5.02,45-10.18,55.14-17.82,100.37-68.14,112.75-124.59,1.85-8.45,3.78-20.38,4.06-28.95.16-5.02-.01-11.63-.27-16.68-.32-6.16-.95-13.04-2.36-18.97.36-1.62.3-4.56.62-6.48.17-1.02-.78-1.71,1.08-1.58,1.7,8.4,4.7,16.07,5.92,24.68,4.32,30.58-2.63,61.55-16.29,88.78-8.62,17.18-18.24,31.38-31.09,46.01-2.49-.26-2.59,2.22-3.56,3.16-5.15,4.99-10.89,10.04-16.73,14.49-3.34,2.55-5.36,3.5-8.61,5.65-28.95,19.1-56.37,28.66-92.04,25.81-1.77-.14-3.98-.09-5.47-1.14Z"/>
  <path class="cls-8" d="M219.46,425.14c7.56.97,13.85,4.82,21.72,4.72,1.49,1.04,3.7.99,5.47,1.14,35.66,2.85,63.09-6.7,92.04-25.81.57,2.19-.1,1.45-1.13,2.11-32.03,20.58-70.13,32.18-108.01,21.47-1.76-.5-9.2-2.77-10.09-3.62Z"/>
  <path class="cls-8" d="M330.02,289.8c19.57-5.65,30.33-9.76,47.6-20.26,1.11-.67,1.74-1.27,1.7.58-14.74,10.25-31.58,15.37-48.64,20.23l-.66-.55Z"/>
  <path class="cls-8" d="M282.47,308.72c18.19-12.26,27.19-13.04,47.55-18.92l.05.6c-14.34,4.1-26.08,6.13-39.49,13.64-2.75,1.54-5.1,3.86-8.11,4.67Z"/>
  <path class="cls-8" d="M235.81,263.7l4.49-3.78c17.71-11.02,37.58-17.86,57.44-24.05,1.66-.52,4.49-1.96,6.01-.84-24.29,8.52-46.26,13.75-67.95,28.68Z"/>
  <path class="cls-8" d="M176.3,371.89c.63,11.79,3.13,22.77,6.14,34.11-4.26-5.75-5.86-23.38-6.45-30.74-.08-1.02-.63-2.65.31-3.36Z"/>
  <path class="cls-8" d="M180.2,341.13l-3.95,30.16c-.48-10.32,1-20.4,3.95-30.16Z"/>
  <path class="cls-8" d="M356.51,193.12l.59-3.69c3.61-7.84,4.08-16.49,4.12-24.99l-2.26-10.7c.02-.42,5.52-3.8,5.44-.87-1.32-.06-2.86.38-4.23.38,3.39,13.82,2.13,27.04-3.67,39.87Z"/>
  <path class="cls-8" d="M224.18,416.81l5.74-15.01c.66-4.7,2.04-9.35,3.2-13.78-.66,10.14-3.78,20.1-8.94,28.79Z"/>
  <path class="cls-8" d="M385.41,176.51l3.93,4.99c2.87,6.15,6.86,12.69,8.46,19.3.23.95.87,2.48-.16,3.19-2.91-10.46-6.2-18.42-12.23-27.47Z"/>
  <path class="cls-8" d="M245.46,349.79c-2.49,6.31-5.63,12.5-7.63,19.01-1.44,4.67-2.1,9.53-3.33,14.23-1.21-.49-.6-1.97-.45-2.88,1.75-10.03,6.52-22.34,11.42-30.36Z"/>
  <path class="cls-8" d="M347.29,399.54c5.84-4.46,11.57-9.5,16.73-14.49.98-.95,1.07-3.43,3.56-3.16-5.73,6.51-11.45,11.47-18.23,16.87-.38.31-1.76,1.89-2.06.79Z"/>
  <path class="cls-8" d="M398.4,205.74c1.02,4.04,1.63,6.53.99,10.86l-.99-10.86Z"/>
  <path class="cls-8" d="M350.37,185.78c.98-2.46,1.46-5.04,2.36-7.51-.19,2.6-.51,3.63-1.34,6.41-.13.43-.35,2.54-1.01,1.1Z"/>
  <path class="cls-8" d="M199.17,416.04c-4.37-1.29-8.52-3.9-12.19-6.45-1.55-1.07-1.37-.88-2.56-1.94,4.98,2.64,9.67,5.88,14.75,8.39Z"/>
  <path class="cls-8" d="M206.74,419c-.07.09.44,2.11-1.09,1.3-.06-.03.03-.87-.53-1.16-1.27-.67-3.18-.52-4.03-2.06,1.72.81,3.76,1.61,5.65,1.92Z"/>
  <path class="cls-8" d="M271.67,317c2.53-2.33,4.14-3.47,6.8-5.48l-6.8,5.48Z"/>
  <path class="cls-8" d="M168.96,351.27c-.09.93-.43,1.77-.44,1.86l.44-1.86Z"/>
  <path class="cls-8" d="M168.68,354.95c-.02.51.09,1.04-.49,1.26.09-.45-.15-1.01.49-1.26Z"/>
  <path class="cls-8" d="M365.01,152.82c1.07.21,3.22,2.13,3.35,3.35-1.17-1.02-2.31-2.18-3.35-3.35Z"/>
  <path class="cls-8" d="M207.89,418.29l2.25-2.03c-1.15,1.35-1.21,1.15-2.25,2.03Z"/>
  <path class="cls-8" d="M169.18,346.99c-.01.08.25.05.11,1.21l-.11-1.21Z"/>
  <path class="cls-8" d="M215.02,409.73c1.36.22-.05.79-.49,1.26l.49-1.26Z"/>
  <path class="cls-8" d="M171.31,337.07s.22-.04.05.6l-.05-.6Z"/>
  <path class="cls-8" d="M369.67,157.26c.52.43,1.48.65,1.94,1.35l-.57.35c-.47-.55-.91-1.14-1.37-1.7Z"/>
  <path class="cls-8" d="M170.44,340.8s.18-.04.05.6l-.05-.6Z"/>
  <path class="cls-8" d="M169.61,345.13s.16-.09.05.6l-.05-.6Z"/>
  <path class="cls-6" d="M466.51,392.96l-1.91,5.64c-3.38-10.08-12.99-19.3-23.31-22.22-1.15-1.02,1.69-1.99,2.25-2.02.72-.04,1.82.57,3.35.33,6.5-1.03,12.99-8.72,14.14-15.03.51-2.77.22-5.48.5-8.22,6.41,9.19,11.54,15.84,22.5,20.15-.29.91-1.39.81-1.72,1.07-3.76-1.52-9.04,1.37-12.04,3.63-.39.29-3.43,3.23-3.56,3.44-.3.46-1.53,9.74-1.51,10.77.02,1.13.27,1.9,1.31,2.46Z"/>
  <path class="cls-2" d="M443.53,374.37c7.88-6.66,11.93-14.19,16.12-23.36l1.21-.11c.16.2.51.34.66.55-.28,2.74,0,5.45-.5,8.22-1.15,6.31-7.64,14-14.14,15.03-1.53.24-2.62-.37-3.35-.33Z"/>
  <path class="cls-7" d="M466.51,392.96c-1.04-.55-1.29-1.33-1.31-2.46-.02-1.03,1.21-10.32,1.51-10.77.14-.21,3.18-3.14,3.56-3.44,2.99-2.26,8.27-5.15,12.04-3.63-7.16,5.74-12.25,11.7-15.79,20.29Z"/>
  <path class="cls-6" d="M459.65,351.01c.21-.46-.74-1.47.79-1.29.69.08.21.92.42,1.18l-1.21.11Z"/>
  <path class="cls-1" d="M56.22,148.04c.73-5.69,4.15-12.15,6.97-17.05.17-.22.37-.43.55-.66,1.14-1.45,2.02-2.57,3.29-3.95.19-.21.35-.45.55-.66,11.66-11.97,29.71-17.89,46.17-13.93.18.45.69.85.68,1.47-.01.57-.41.77-.46.94-6.19,3.17-12.5,6.26-17.88,10.75-11.62,9.7-14.3,24.53-24.42,32.89-11.05,9.13-17.16,3.54-15.45-9.81Z"/>
  <path class="cls-8" d="M113.74,111.79c-16.47-3.97-34.51,1.96-46.17,13.93,4.52-4.78,8.19-8.24,14.32-11.21,8.33-4.04,21.91-6.31,30.91-3.91,2.11.56.91,1.09.95,1.19Z"/>
  <path class="cls-8" d="M56.22,148.04c-1.28-.53-.59-1.92-.38-2.83,1.19-5.29,4.29-10.31,7.35-14.23-2.81,4.91-6.23,11.37-6.97,17.05Z"/>
  <path class="cls-8" d="M96.08,124.95c5.38-4.49,11.69-7.57,17.88-10.75-.08.31.3.94-.29,1.27l-17.59,9.47Z"/>
  <path class="cls-8" d="M67.02,126.38c-1.27,1.38-2.15,2.5-3.29,3.95.11-1.72,1.63-3.54,3.29-3.95Z"/>
  <path class="cls-8" d="M191.39,116.29c-1.57-.44.58-.97.97-1.14,7.14-3.16,14.69-4.78,21.49-7.64.48-.2.37-1.2.7-1.24,1.89-.23,3.17.79,6.01-.5,1.27-.57,2.06-2.57,4.71-2.76,1.01-.07,1.72,1.16,2.86.76.91-.32,4.06-3.5,5.99-4.03,1.6-.45,3.03.38,3.99.05s1.45-2.12,2.46-2.49c1.23-.44,2.54.44,3.98.07,1.82-.46,7.36-5.33,8.24-1.27-3.83-.35-2.69,2.49-1.97,5.04-5.9.49-11.83,1.15-17.65,2.29-1.65.32-3.68,1.28-5.1,1.6-12.36,2.79-25.14,5.95-36.69,11.24Z"/>
  <path class="cls-8" d="M117.3,204.52l.55-.66s.63.2.67.54c-.36.13-.99-.01-1.21.12Z"/>
  <path class="cls-6" d="M39.37,391.03c-.76-24.62,12.7-59.42,24-81.2,51-98.32,178.72-202.6,286.26-230.33,15.74-4.06,41.7-9.2,57.39-6.53,36.36,6.19,69.21,16.33,69.93,60.23.28,17.1-10.11,54.3-20.58,67.87l-.65-.56c-.05.39.17.91.1,1.21-.14.57-.39.91-.49,1.26-2.03-.2-.8.95-1.04,1.92-.33,1.34-.67,1.66-1.59,2.58-.1.1-.87-.16-1.11.21-.26.41.18,1.52.04,1.69-.43.52-3.86-.52-4.86-.14.34-.63.71-1.29,1.04-1.92l.49-1.26c16-31.51,24.97-62.17,1.92-92.62-12.21-16.13-29.33-22.45-49.13-25.34-1.25-.18-1.52-.34-3.07-.33-.4,0-.81.11-1.21.11-.66-.92-3.1-.71-3.62.33-.76-.03-1.49-.43-1.86-.44-1.03-.03-4.35-.82-5.24-.74l-23.53,2.14c-.2.02-.97.65-1.73.79-1.92.35-5.78-.41-5.04,1.65-.39.07-.81.03-1.21.11-.88-.94-2.84-.44-3.97-.24-6.16,1.09-12.23,3.23-18.08,5.28-22.68,7.97-45.36,17.92-66.68,29.17-7.96,4.2-15.03,8.72-22.48,13.6-49.51,32.4-93.78,68.95-130.28,115.83-16.42,21.09-35.26,50.08-43.02,75.66-.2.67-1.28,2.23-.05,2.47-14.78,37.6-20.08,88.5,33.26,92.88,22.81,1.87,45.63-4.73,66.07-14.34,2.17-.33,3.97,2.63,5.46,3.77-7.38,3.35-14.4,7.7-22.15,10.25-35.53,11.7-99.67,21.65-111.83-27.12-.66-2.63,0-5.68-1.47-7.93Z"/>
  <path class="cls-2" d="M454.29,204.92c.24-.97-.99-2.12,1.04-1.92-.22.73.05,1.55-1.04,1.92Z"/>
  <path class="cls-2" d="M455.82,201.74c.08-.3-.15-.82-.1-1.21l.65.56c-.17.23-.33.47-.55.66Z"/>
  <path class="cls-6" d="M88.07,378.08c-.18-22.12,16.35-54.27,28.08-72.77,37.38-58.95,96.34-110.3,157.41-143.68,32.19-17.6,88.17-41.37,124.9-35.57,16.66,2.63,37.34,11.03,41.57,29.07,2.97,12.68,1.67,24.23-1.54,36.63-.05.18.1.42.05.6-1.89,3.12-2.86,6.64-3.95,10.09-.16.49-.37.88-.49,1.26-1.97-.14-.88.73-1.04,1.92-.03.2.09.42.05.6-1.89,1.89-3.54-1.39-5.43.49,8.58-22.01,6.26-43.08-13.16-57.8-.87-.66-2.36-2.32-3.04-2.69-.82-.46-2.39-.3-2.63-.55-.32-.33-.13-1.33-.4-1.83-1.18-2.2-16.24-5.78-19.39-6.21-51.18-6.86-123.16,34.69-163.32,64.43-42.03,31.12-90.95,80.95-110.12,130.13-.35.89-1.22,2.02.56.74-7.09,15.94-14.17,39.3-4.62,55.39,8.85,14.91,27.18,13.43,41.81,9.32,1.05.06,5.01,4.44,6.3,5.55-19.38,4.89-48,12.42-63.63-4.27-2.35-2.51-4.66-6.67-5.64-9.96-1.02-3.41-.92-7.65-2.35-10.89Z"/>
  <path class="cls-2" d="M89.38,399.25c-15.51-24.76,3.66-65.5,16.95-88.06,30.71-52.11,81.08-100.45,131.35-133.74,45.73-30.29,133.7-75.81,187.24-47.36,1.21.64,2.57,1.11,3.31,2.38-8.76-4.83-19.75-6.46-29.78-6.42-36.74-5.8-92.71,17.98-124.9,35.57-61.07,33.38-120.04,84.73-157.41,143.68-11.73,18.5-28.26,50.66-28.08,72.77.04,5.05.97,10.43,1.4,15.37.13,1.54.37,4.4-.09,5.8Z"/>
  <path class="cls-7" d="M243.38,139.54l22.48-13.6c21.32-11.25,44-21.21,66.68-29.17,7.38-1.57,14.62-3.6,22.05-5.04.39-.08.81-.04,1.21-.11,3.27-.61,8.04-1.95,11.05-2.22l15.08-1.37c.21-.02,1.06.49,1.84.46,2.52-.08,5.05-.6,7.56-.71.37.01,1.11.41,1.86.44,1.14.05,2.44-.33,3.62-.33.4,0,.81-.11,1.21-.11.6.93,2.1.38,3.07.33,19.81,2.88,36.93,9.21,49.13,25.34-28.31-26.68-70.25-23.35-105.45-14.57-94.79,23.64-200.72,110.39-252.11,191.88-8.22,13.04-17.04,28.49-22.64,42.74-1.23-.24-.15-1.8.05-2.47,7.76-25.58,26.6-54.57,43.02-75.66,36.51-46.88,80.77-83.43,130.28-115.83Z"/>
  <path class="cls-9" d="M106.61,287.6c-.86-.75,5.77-11.62,6.73-13.06,11.49-17.19,27.03-33.75,41.52-48.47,34.26-34.8,71.47-62.25,114.25-85.99,14.97-8.31,34.71-19.14,51.76-22.12,3.71-.65,7.01.66,10.17,2.38l-18.7,6.7c-40.49,15.75-77.82,37.76-111.73,64.67-26.48,21.01-51.87,45.93-73.35,72.12-6.32,7.7-11.31,15.13-18.64,22.38-.63.62-.84,1.55-2,1.39Z"/>
  <path class="cls-7" d="M116.2,332.95c-1.77,1.28-.9.14-.56-.74,19.16-49.18,68.09-99.01,110.12-130.13,40.16-29.74,112.14-71.29,163.32-64.43,3.15.42,18.21,4.01,19.39,6.21.26.49.08,1.5.4,1.83.24.25,1.81.09,2.63.55.67.37,2.16,2.03,3.04,2.69-31.59-16.36-72.05-4.77-103.13,7.99-65.29,26.82-131.46,80.22-172.25,137.45-8.19,11.49-17.23,25.73-22.94,38.59Z"/>
  <path class="cls-7" d="M423.25,224.77c2.31-5.51,8.61-12.85,9.87-18.54.04-.18-.08-.4-.05-.6,1.1-.36.81-1.22,1.04-1.92.13-.38.34-.77.49-1.26,1.76-3.09,3.03-6.66,3.95-10.09.05-.18-.1-.42-.05-.6,4.56-11.31,5.78-25.13,1.54-36.63-4.23-18.04-24.91-26.43-41.57-29.07,10.03-.04,21.02,1.59,29.78,6.42,3.53,1.94,6.19,4.06,8.81,7.16,21.87,25.9,3.98,66.05-13.41,89.35-.3-1.29-.04-3.02-.39-4.22Z"/>
  <path class="cls-7" d="M89.38,399.25c.46-1.4.22-4.26.09-5.8-.43-4.93-1.36-10.32-1.4-15.37,1.43,3.24,1.33,7.49,2.35,10.89.98,3.29,3.29,7.45,5.64,9.96,15.62,16.68,44.25,9.15,63.63,4.27.96.82,2.67,1.4,3.29,2.74-6.39,1.51-12.43,4.21-18.81,5.8-18.77,4.68-43.13,6.13-54.78-12.48Z"/>
  <path class="cls-9" d="M251.44,201.45l20.2-14.1c7.33-3.24,14.24-7.66,22.02-9.8-10.8,12.82-27.02,17.96-42.23,23.9Z"/>
  <path class="cls-2" d="M427.69,206.73c1.89-1.89,3.54,1.39,5.43-.49-1.27,5.69-7.56,13.02-9.87,18.54-.38-1.33-2.18-3.04-2-4.69.2-1.8,5.31-10.44,6.44-13.35Z"/>
  <path class="cls-3" d="M130.96,327.97c1.06-.2.83,1.99.83,2.65.04,4.53-.57,9.16-.26,13.71-.58-1.27-5.24-7.74-5.22-8.23.1-1.72,4.58-5.76,4.65-8.13Z"/>
  <path class="cls-2" d="M448.31,206.07l-.49,1.26c.14-.27.24-.77.49-1.26Z"/>
  <path class="cls-9" d="M294.57,177.47c-.41-.17-.43-.37-.05-.6l.05.6Z"/>
  <path class="cls-4" d="M320.53,386.15c-.08-.04-1.09-.9-1.32-1.1-3.98-7.16.87-14.89,3.51-21.61,3.06-4.88,7.86-11.69,11.3-16.23l.55-.66c1.51-1.97,3.81-4.64,5.48-6.58l2.19-2.63c2.26-2.5,5.36-5.62,7.79-8.01,1.43-1.41,3.02-2.7,4.5-4.06.21-.19.35-.48.55-.66,5.16-4.27,17.74-9.94,20.94-.7,2.52,7.28-4.29,20.33-7.61,26.86-1.55,2.55-3.63,6.04-5.32,8.39l-1.1,1.32c-.8,1.09-1.8,1.76-2.74,3.29l-1.1,1.32c-1.1,1-1.49,1.92-2.19,2.63l-1.65,1.97c-2.94,2.84-6.83,6.26-10.15,8.83-6.03,4.68-15.93,11.35-23.64,7.62Z"/>
  <path class="cls-4" d="M386.17,292c.16.11,1.26,1.03,1.32,1.1,3.63,5.68-3.53,17.93-10.08,13.09-5.59-4.13,1.65-17.51,8.76-14.19Z"/>
  <path class="cls-5" d="M244.8,429.53c15.71-1.84,33.47-5.06,48.37-9.87-14.5,5.16-29.59,8.94-45,10.18-1.02.08-2.65.63-3.36-.31Z"/>
  <path class="cls-5" d="M405.91,295.07c-1.35-.56-.51-1.94-.36-2.81,1.36-8.17,2.22-15.94,3.2-24.13.13-1.09-.48-2.22,1.22-2.02-.28,8.57-2.21,20.5-4.06,28.95Z"/>
  <path class="cls-5" d="M368.4,350.78c3.32-6.53,10.13-19.59,7.61-26.86-3.2-9.24-15.78-3.57-20.94.7,4.3-3.89,8.4-7.9,15.07-6.38,1.19.27,5.71,3,6.19,3.97,3.98,8.11-3.74,21.67-7.93,28.56Z"/>
  <path class="cls-5" d="M320.53,386.15c7.71,3.73,17.61-2.94,23.64-7.62-2.23,2.68-7.31,6.19-10.53,7.67-3.77,1.74-9.86,3.42-13.11-.05Z"/>
  <path class="cls-5" d="M319.21,385.06c-2.58-2.28-2.63-4.41-2.39-7.85.27-3.93,3.83-10.44,5.9-13.76-2.64,6.71-7.49,14.44-3.51,21.61Z"/>
  <path class="cls-5" d="M387.49,293.1c5.55,7.15-6.02,20.64-12.01,12.44-2.93-4.01.5-10.06,3.87-12.82,3.07-2.51,3.82-2.84,6.83-.72-7.11-3.32-14.35,10.06-8.76,14.19,6.55,4.83,13.7-7.42,10.08-13.09Z"/>
  <path class="cls-5" d="M358.15,365.1l1.1-1.32c-.08.13.27.8,0,1.12s-.99.09-1.1.2Z"/>
  <path class="cls-5" d="M242.38,429.75l.25-.63.95.52c-.4.05-.81.07-1.21.11Z"/>
  <path class="cls-5" d="M350.03,329.34l-.66-.54,5.15-3.52c-1.48,1.36-3.07,2.65-4.5,4.06Z"/>
  <path class="cls-5" d="M355.95,367.73c-.48.49-.85,1.21-1.65,1.97l1.65-1.97Z"/>
  <path class="cls-5" d="M363.08,359.18c-.41.57-.83.95-1.1,1.32l1.1-1.32Z"/>
  <path class="cls-5" d="M334.57,346.56l-.55.66c.17-.23.38-.43.55-.66Z"/>
  <path class="cls-5" d="M342.25,337.35l-2.19,2.63c.75-.87,1.34-1.69,2.19-2.63Z"/>
  <path class="cls-2" d="M355.8,91.62c-.74-2.06,3.12-1.31,5.04-1.65.76-.14,1.53-.77,1.73-.79l23.53-2.14c.89-.08,4.2.71,5.24.74-2.51.11-5.04.63-7.56.71-.79.03-1.63-.48-1.84-.46l-15.08,1.37c-3.01.27-7.78,1.61-11.05,2.22Z"/>
  <path class="cls-2" d="M332.55,96.77c5.85-2.05,11.92-4.19,18.08-5.28,1.13-.2,3.08-.7,3.97.24-7.42,1.44-14.66,3.47-22.05,5.04Z"/>
  <path class="cls-2" d="M393.2,88.22c.52-1.04,2.96-1.25,3.62-.33-1.17,0-2.48.38-3.62.33Z"/>
  <path class="cls-2" d="M398.03,87.78c1.55,0,1.82.15,3.07.33-.97.05-2.47.6-3.07-.33Z"/>
  <path class="cls-2" d="M243.38,139.54c7.46-4.88,14.52-9.4,22.48-13.6l-22.48,13.6Z"/>
  <path class="cls-2" d="M440.03,155.12c4.24,11.5,3.02,25.32-1.54,36.63,3.21-12.4,4.51-23.95,1.54-36.63Z"/>
  <path class="cls-2" d="M433.06,205.63c.17-1.19-.93-2.06,1.04-1.92-.23.7.06,1.56-1.04,1.92Z"/>
  <path class="cls-2" d="M438.55,192.36c-.92,3.43-2.19,7-3.95,10.09,1.09-3.45,2.06-6.97,3.95-10.09Z"/>
</svg>